<?xml version="1.0" standalone="no"?><!DOCTYPE svg PUBLIC "-//W3C//DTD SVG 1.1//EN" "http://www.w3.org/Graphics/SVG/1.1/DTD/svg11.dtd"><svg t="1493573779257" class="icon" style="" viewBox="0 0 1024 1024" version="1.1" xmlns="http://www.w3.org/2000/svg" p-id="8446" xmlns:xlink="http://www.w3.org/1999/xlink" width="400" height="400"><defs><style type="text/css"></style></defs><path d="M409.6 563.2H153.6c-56.32 0-102.4 46.08-102.4 102.4v204.8c0 56.32 46.08 102.4 102.4 102.4h204.8c56.32 0 102.4-46.08 102.4-102.4V614.4c0-28.16-23.04-51.2-51.2-51.2z m0 307.2c0 28.16-22.9376 51.2-51.2 51.2H153.6c-28.2624 0-51.2-23.04-51.2-51.2V665.6c0-28.2624 22.9376-51.2 51.2-51.2h256v256zM358.4 51.2H153.6C97.28 51.2 51.2 97.28 51.2 153.6v204.8c0 56.32 46.08 102.4 102.4 102.4h256c28.16 0 51.2-23.04 51.2-51.2V153.6c0-56.32-46.08-102.4-102.4-102.4z m51.2 358.4H153.6c-28.2624 0-51.2-23.04-51.2-51.2V153.6c0-28.2624 22.9376-51.2 51.2-51.2h204.8c28.2624 0 51.2 22.9376 51.2 51.2v256zM870.4 51.2H665.6c-56.32 0-102.4 46.08-102.4 102.4v256c0 28.16 23.04 51.2 51.2 51.2h256c56.32 0 102.4-46.08 102.4-102.4V153.6c0-56.32-46.08-102.4-102.4-102.4z m51.2 307.2c0 28.16-22.9376 51.2-51.2 51.2H614.4V153.6c0-28.2624 22.9376-51.2 51.2-51.2h204.8c28.2624 0 51.2 22.9376 51.2 51.2v204.8zM870.4 563.2H614.4c-28.16 0-51.2 23.04-51.2 51.2v256c0 56.32 46.08 102.4 102.4 102.4h204.8c56.32 0 102.4-46.08 102.4-102.4V665.6c0-56.32-46.08-102.4-102.4-102.4z m51.2 307.2c0 28.16-22.9376 51.2-51.2 51.2H665.6c-28.2624 0-51.2-23.04-51.2-51.2V614.4h256c28.2624 0 51.2 22.9376 51.2 51.2v204.8z" p-id="8447" fill="#7cc8d6"></path></svg>